<svg id="Icons" height="512" viewBox="0 0 64 64" width="512" xmlns="http://www.w3.org/2000/svg"><g fill="#c4a2fc"><path d="m26.676 33.748-1.333 2h24.314l-1.333-2z"/><path d="m62.478 40.748c-.3-.611.094.1-7.052-10.792a2.993 2.993 0 0 0 -2.5-1.336h-29.856a2.993 2.993 0 0 0 -2.5 1.336c-7.115 10.84-6.752 10.185-7.052 10.792zm-39.836-4.555 2.667-4a1 1 0 0 1 .832-.445h22.718a1 1 0 0 1 .832.445l2.667 4a1 1 0 0 1 -.832 1.555h-28.052a1 1 0 0 1 -.832-1.555z"/><path d="m13.016 42.748c0 .07-.016.14-.016.211v13.789a3 3 0 0 0 3 3h44a3 3 0 0 0 3-3v-13.789c0-.071-.013-.141-.016-.211z"/></g><path d="m43.287 12.883c-.011-.007-.018-.018-.029-.024l-14.958-8.015a5 5 0 0 0 -4.6-.065l-12.7 6.351v-.382a3 3 0 0 0 -3-3h-4a3 3 0 0 0 -3 3v20a3 3 0 0 0 3 3h4a3 3 0 0 0 3-3v-.382l4.864 2.434a9.05 9.05 0 0 0 4.025.95h8.753a12.989 12.989 0 1 0 14.645-20.867zm-34.287 17.865a1 1 0 0 1 -1 1h-4a1 1 0 0 1 -1-1v-20a1 1 0 0 1 1-1h4a1 1 0 0 1 1 1zm7.758.26-5.758-2.878v-14.764l13.6-6.8a3 3 0 0 1 2.759.038l9.681 5.196a13.007 13.007 0 0 0 -10.561 6.952h-4.43a3.5 3.5 0 0 0 0 7h11.951a3 3 0 0 1 0 6h-14.111a7.032 7.032 0 0 1 -3.131-.744zm5.291-7.26a1.5 1.5 0 0 1 0-3h3.587a12.88 12.88 0 0 0 -.585 3zm11.951 0h-1.91a6 6 0 1 1 6.5 6.97 4.993 4.993 0 0 0 -4.59-6.97zm4 12a11.012 11.012 0 0 1 -6.308-2h2.308a4.948 4.948 0 0 0 3.046-1.064 8 8 0 1 0 -6.977-8.936h-3.018a11 11 0 1 1 10.949 12z" fill="#151a6a"/></svg>