<?xml version="1.0"?>
<svg xmlns="http://www.w3.org/2000/svg" id="Capa_1" enable-background="new 0 0 512 512" height="512px" viewBox="0 0 512 512" width="512px"><g><g><path d="m464.99 399.499c-2.68-4.64-7.631-7.499-12.99-7.499s-10.31 2.858-12.99 7.499l-25.998 45.02c-3.933 6.813-6.012 14.586-6.012 22.481 0 24.813 20.187 45 45 45s45-20.187 45-45c0-7.894-2.079-15.667-6.013-22.482z" data-original="#000000" class="active-path" data-old_color="#000000" fill="#04458F"/><path d="m377 152h-77.979c-15.976-15.588-36.345-25.68-58.021-28.891v-63.109h32.58c6.192 17.458 22.865 30 42.42 30 24.813 0 45-20.187 45-45s-20.187-45-45-45c-19.555 0-36.228 12.542-42.42 30h-95.16c-6.192-17.458-22.865-30-42.42-30-24.813 0-45 20.187-45 45s20.187 45 45 45c19.555 0 36.228-12.542 42.42-30h32.58v63.109c-21.676 3.212-42.045 13.303-58.021 28.891h-122.979v-45c0-8.284-6.716-15-15-15s-15 6.716-15 15v210c0 8.284 6.716 15 15 15s15-6.716 15-15v-45h122.979c19.62 19.144 45.866 30 73.021 30s53.401-10.856 73.021-30h77.979c8.271 0 15 6.729 15 15v60c0 8.284 6.716 15 15 15h90c8.284 0 15-6.716 15-15v-60c0-74.439-60.561-135-135-135z" data-original="#000000" class="active-path" data-old_color="#000000" fill="#04458F"/></g></g> </svg>
