<?xml version="1.0" encoding="iso-8859-1"?>
<!-- Generator: Adobe Illustrator 19.0.0, SVG Export Plug-In . SVG Version: 6.00 Build 0)  -->
<svg version="1.1" id="Layer_1" xmlns="http://www.w3.org/2000/svg" xmlns:xlink="http://www.w3.org/1999/xlink" x="0px" y="0px"
	 viewBox="0 0 512.004 512.004" style="enable-background:new 0 0 512.004 512.004;" xml:space="preserve">
<g>
	<g>
		<circle cx="114.467" cy="70.429" r="36.567"/>
	</g>
</g>
<g>
	<g>
		<path d="M186.067,154.548c-8.185-23.821-21.911-35.899-40.796-35.899c-12.025,0-48.11,0-61.612,0
			c-18.884,0-32.611,12.078-40.796,35.899C30.176,191.466,1.367,270.287,1.078,271.079c-3.346,9.152,1.361,19.284,10.512,22.63
			c9.157,3.346,19.286-1.366,22.63-10.513c0.221-0.606,17.076-46.72,30.748-85.111L44.463,317.308
			c-1.175,6.069,3.502,11.677,9.623,11.677c3.796,0,8.367,0,13.464,0V456.97c0,11.694,9.479,21.173,21.172,21.173
			c11.692,0,21.172-9.479,21.172-21.173V328.985c3.044,0,6.098,0,9.142,0V456.97c0,11.694,9.479,21.173,21.172,21.173
			s21.172-9.479,21.172-21.173V328.985c5.098,0,14.619-0.066,15.184-0.167v-57.456l-12.257-71.27
			c2.847,8.394,6.022,17.776,9.519,28.128c1.07,3.166,2.998,5.896,5.49,7.954c4.35-12.077,13.547-21.878,25.229-27.071
			C196.859,186.368,190.046,166.123,186.067,154.548z"/>
	</g>
</g>
<g>
	<g>
		<circle cx="429.708" cy="100.144" r="33.551"/>
	</g>
</g>
<g>
	<g>
		<path d="M473.395,148.327h-87.368c-21.181,0-38.499,17.098-38.605,38.114v103.003l-23.633-5.658V250.08
			c-0.082-16.451-13.587-29.784-30.104-29.784H223.75c-16.517,0-30.022,13.333-30.104,29.72v92.797
			c0,7.174,5.984,12.949,13.233,12.608c6.789-0.319,12.013-6.168,12.013-12.965c0-0.449-0.011-92.5,0.02-92.948
			c0.277-4.037,6.108-3.711,6.103,0.335v212.489c0,8.268,6.626,14.99,14.857,15.144c8.489,0.159,15.437-7.052,15.437-15.541V341.261
			h6.54v121.072c0,8.268,6.626,14.99,14.857,15.144c8.489,0.159,15.437-7.051,15.437-15.541l0.006-211.849
			c0-4.062,6.39-4.531,6.398,0.057v43.599c0,5.84,4.005,10.916,9.684,12.275l43.526,10.42c2.956,3.186,7.167,5.192,11.857,5.192
			c8.918,0,16.187-7.265,16.187-16.187c0-0.224-0.003-118.89,0.007-119.114c0.202-4.556,7.036-4.353,7.031,0.208l-0.345,272.179
			c0,10.963,9.081,19.805,20.132,19.412c10.526-0.374,18.716-9.345,18.716-19.877V303.454h8.387v154.798
			c0,10.533,8.19,19.504,18.716,19.877c11.051,0.393,20.133-8.448,20.133-19.412l0.008-272.477c0-4.419,6.988-5.13,7.045,0.363
			v118.843c0,9.136,7.568,16.503,16.777,16.176c8.772-0.311,15.597-7.787,15.597-16.564V186.523
			C511.894,165.425,494.577,148.327,473.395,148.327z"/>
	</g>
</g>
<g>
	<g>
		<circle cx="258.715" cy="178.212" r="32.238"/>
	</g>
</g>
<g>
</g>
<g>
</g>
<g>
</g>
<g>
</g>
<g>
</g>
<g>
</g>
<g>
</g>
<g>
</g>
<g>
</g>
<g>
</g>
<g>
</g>
<g>
</g>
<g>
</g>
<g>
</g>
<g>
</g>
</svg>
