<svg id="Capa_1" enable-background="new 0 0 512 512" height="512" viewBox="0 0 512 512" width="512" xmlns="http://www.w3.org/2000/svg"><g><path d="m470.472 342.469h-428.944v-258.331c0-11.357 9.207-20.564 20.564-20.564h387.817c11.357 0 20.564 9.207 20.564 20.564v258.331z" fill="#8d9ca8"/><path d="m470.472 84.142v258.326h-20.564v-258.326c0-11.361-9.202-20.564-20.564-20.564h20.564c11.362.001 20.564 9.203 20.564 20.564z" fill="#7a8c98"/><path d="m436.09 342.469h-360.18v-238.952c0-3.217 2.608-5.825 5.825-5.825h348.53c3.217 0 5.825 2.608 5.825 5.825z" fill="#eaf6ff"/><path d="m436.085 103.513v238.959h-20.564v-238.959c0-3.218-2.601-5.819-5.819-5.819h20.564c3.218 0 5.819 2.601 5.819 5.819z" fill="#d8ecfe"/><path d="m470.472 342.469h-214.472-214.472l-41.528 66.588h256 256z" fill="#d0d9dd"/><path d="m511.996 409.057h-20.564l-41.528-66.585h20.564z" fill="#b6c4cf"/><path d="m511.996 409.057v22.815c0 9.141-7.403 16.554-16.543 16.554h-20.574c9.141 0 16.554-7.413 16.554-16.554v-22.815z" fill="#7a8c98"/><path d="m316.548 380.646c-.948-2.912-3.663-4.883-6.726-4.883h-53.822-53.822c-3.063 0-5.778 1.971-6.726 4.883l-9.253 28.411h69.801 69.801z" fill="#f0f5f7"/><path d="m325.803 409.057h-20.8l-9.254-28.409c-.946-2.91-3.66-4.884-6.724-4.884h20.8c3.064 0 5.778 1.974 6.724 4.884z" fill="#e3e7e8"/><g><g><path d="m212.668 141.337h-93.049c-4.259 0-7.711-3.453-7.711-7.711s3.452-7.711 7.711-7.711h93.049c4.259 0 7.711 3.453 7.711 7.711s-3.452 7.711-7.711 7.711z" fill="#8d9ca8"/></g><g><path d="m241.861 166.88h-122.242c-4.259 0-7.711-3.453-7.711-7.711 0-4.259 3.452-7.711 7.711-7.711h122.242c4.259 0 7.711 3.453 7.711 7.711s-3.452 7.711-7.711 7.711z" fill="#8d9ca8"/></g></g><g><path d="m198.001 306.535h-46.774v-73.281c0-1.721 1.395-3.116 3.116-3.116h40.543c1.721 0 3.116 1.395 3.116 3.116v73.281z" fill="#5de1c4"/><path d="m279.387 306.535h-46.774v-109.083c0-1.721 1.395-3.116 3.116-3.116h40.543c1.721 0 3.116 1.395 3.116 3.116v109.083z" fill="#c2a1d5"/><path d="m360.773 306.535h-46.774v-84.758c0-1.721 1.395-3.116 3.116-3.116h40.543c1.721 0 3.116 1.395 3.116 3.116v84.758z" fill="#fd9468"/></g><g><path d="m198.001 233.259v73.278h-20.564v-73.278c0-1.727-1.398-3.115-3.115-3.115h20.564c1.716 0 3.115 1.388 3.115 3.115z" fill="#0ed2b3"/><path d="m279.391 197.447v109.09h-20.564v-109.09c0-1.717-1.398-3.115-3.115-3.115h20.564c1.717 0 3.115 1.398 3.115 3.115z" fill="#b289c9"/><path d="m360.771 221.774v84.763h-20.564v-84.763c0-1.717-1.398-3.115-3.115-3.115h20.564c1.717 0 3.115 1.398 3.115 3.115z" fill="#fe7d43"/></g><g><path d="m392.381 314.246h-272.762c-4.259 0-7.711-3.453-7.711-7.711 0-4.259 3.452-7.711 7.711-7.711h272.762c4.259 0 7.711 3.453 7.711 7.711.001 4.259-3.451 7.711-7.711 7.711z" fill="#8d9ca8"/></g><path d="m495.449 448.422h-478.898c-9.141 0-16.551-7.41-16.551-16.551v-22.814h512v22.814c0 9.141-7.41 16.551-16.551 16.551z" fill="#8d9ca8"/></g></svg>